<svg xmlns="http://www.w3.org/2000/svg" viewBox="0 0 680.94 442.78"><defs><style>.cls-1{fill:#e0e0e0;}.cls-2{fill:#fafafa;}.cls-3{fill:#ebebeb;}.cls-4{fill:#f5f5f5;}.cls-5{fill:#263238;}.cls-6{fill:#b56d50;}.cls-7{opacity:0.3;}.cls-8{fill:#455a64;}.cls-9{fill:#fff;}.cls-10{fill:#1c8a99;}.cls-11{fill:#ffbf9d;}.cls-12{fill:#ff9a6c;}</style></defs><g id="Layer_2" data-name="Layer 2"><g id="Background_Complete" data-name="Background Complete"><path class="cls-1" d="M77.56,328.5a40.78,40.78,0,0,0-17.45-6c-2.85-.29-6-.21-8.26,1.52a1.7,1.7,0,0,0-.85,1.5,1.87,1.87,0,0,0,.81,1c7.1,5.41,17.84,6.1,25.75,1.95"/><path class="cls-1" d="M77.11,328a85.06,85.06,0,0,1-11.27-9.91A28.5,28.5,0,0,1,58.77,305c-.3-1.49-.39-3.19.56-4.37,9,7,16,16.09,17.78,27.35"/><path class="cls-1" d="M77.46,328.43a40.88,40.88,0,0,1,.21-14.8c1.13-4.83,3.76-9.45,7.88-12.21,1.56,3.63.89,7.81-.2,11.6a56.61,56.61,0,0,1-7.82,16.46"/><path class="cls-1" d="M86.27,344.21c-5.35.65-10,3.47-14,7.08a26.5,26.5,0,0,0-8,13.74c5.25-.32,9.69-4,12.92-8.17s5.46-8.69,9-12.57"/><path class="cls-1" d="M88.18,346.73a34.54,34.54,0,0,1,4-32.65c3,10.84,1.93,23.08-4,32.65"/><path class="cls-1" d="M99.82,360.59A24.94,24.94,0,0,0,76,374.33c-.3.59-.56,1.34-.16,1.87a1.75,1.75,0,0,0,1.58.46c4.7-.3,8.87-3.13,12.31-6.35s6.43-6.95,10.24-9.73"/><path class="cls-1" d="M99.45,359.83A44.4,44.4,0,0,1,99,335c.87-3.2,2.34-6.56,5.29-8.06a1,1,0,0,1,.81-.14,1,1,0,0,1,.52.59,15.08,15.08,0,0,1,1.25,7.12,45.22,45.22,0,0,1-1.12,7.21c-.93,4.41-1.43,9.15-3.84,12.95a25.08,25.08,0,0,0-1.54,2.84c-.46,1-.46,1.31-.88,2.07"/><path class="cls-1" d="M130.25,364.42c-2.28-8.68.14-19.2,5.61-26.32.4-.52.94-1.08,1.6-1,1,.09,1.27,1.43,1.22,2.44a47.5,47.5,0,0,1-8.43,24.9"/><path class="cls-1" d="M133,366.32c10.54,2.75,22.64.08,31.42-6.39a25.47,25.47,0,0,0-17-2.08c-5.68,1.29-10.88,3.84-14.41,8.47"/><path class="cls-1" d="M135.37,360.54c5.91-9.63,17.23-15.91,28.51-16.49-1.3,4.59-5.07,8.16-9.32,10.32s-9,3.09-13.69,4c-1.82.35-4.32.74-5.5,2.17"/><path class="cls-1" d="M130.84,332.5c1.6-5.48,3.21-11,3.64-16.7s-.37-11.64-3.32-16.52c-5.52,10.68-6.08,23.15-.49,33.79"/><path class="cls-1" d="M149.41,323.11c6.46-11.73,19.62-21.1,32.94-22.41-5.14,12.79-19.15,22.68-32.94,22.41"/><path class="cls-1" d="M145.35,325.41c9.63,1.46,17.83,7.61,26.82,11.33a12,12,0,0,0,6.06,1.16,4.74,4.74,0,0,0,3-8.39,12.87,12.87,0,0,0-4.4-2.67c-9.8-4.08-20.3-4.18-30.62-1.71"/><path class="cls-1" d="M139.79,332.15c2.17.63,2.92,1.76,4.64,3.23a50.23,50.23,0,0,0,20.34,10.44c.77.19,1.79.27,2.18-.43s-.09-1.36-.53-1.9a28,28,0,0,0-12.28-8.34c-4.69-1.74-8.75-3.85-14.35-3.4"/><path class="cls-1" d="M133.5,291.39a38.45,38.45,0,0,0,29.5,10,2,2,0,0,0,1.35-.48c.74-.81-.15-2.06-1-2.73-8.67-6.76-19.18-9.57-29.83-6.83"/><path class="cls-1" d="M141,288.67a41.11,41.11,0,0,1,36.81-6.08c-4.63,4.57-11.06,7-17.54,7.7A55.47,55.47,0,0,1,141,288.67"/><path class="cls-1" d="M138,269.94c-.85-8.66-.3-15.5-.9-24.19-.05-.7-.2-1.53-.85-1.78-.9-.35-1.66.76-2,1.68A27.71,27.71,0,0,0,138,269.74"/><path class="cls-1" d="M137.37,270.89c5.87-3.63,10.27-8.37,14.34-13.94,2.83-3.87,5.22-8.51,4.58-13.27-4-.08-7.76,2.11-10.35,5.14a28.81,28.81,0,0,0-5.27,10.61c-1.15,3.8-1.95,7.72-3.3,11.46"/><path class="cls-1" d="M151.46,267a115.62,115.62,0,0,0,35.29-20.81c-4.22-1.7-9-.68-13.26,1-9.63,3.88-17.49,10.44-22.22,19.69"/><path class="cls-1" d="M141.33,275.63c6.52.71,13.13,1.17,19.6.09s12.35-3.58,18.29-6.08a2.09,2.09,0,0,0,1.24-.94,1.41,1.41,0,0,0-.44-1.56,3.82,3.82,0,0,0-1.56-.74c-6.46-1.8-13.42-1-19.77,1.19a91.42,91.42,0,0,0-17.36,8"/><path class="cls-1" d="M104.13,291.69c-4.45-9-4.16-19.44-.32-28.69,2.71,4.12,3,9.36,2.54,14.26s-2,9.95-2.08,14.87"/><path class="cls-1" d="M86.37,282.73A40,40,0,0,0,56.64,295.4c5.54.87,11.24-.56,16.28-3s9.52-5.91,14-9.34"/><path class="cls-1" d="M74.43,278.74c-5.42-.44-10.65-1.11-15.87.49s-10,5.23-12.1,10.26a28.78,28.78,0,0,0,14.88-2.81,84.86,84.86,0,0,0,13.09-7.94"/><path class="cls-1" d="M92.11,278.92c-4.88-3.2-9.9-6.46-15.59-7.78s-12.27-.35-16.24,3.94c4.61,2.7,10.19,3,15.53,3s11.88-.06,16.91,1.72"/><path class="cls-1" d="M92.14,279.18C83.79,271,80.62,256.25,84,245a52,52,0,0,1,8.16,34.14"/><path class="cls-1" d="M115.1,256c1.57-3.66,2.68-7.5,4.09-11.23A32.36,32.36,0,0,1,125,234.37,15.38,15.38,0,0,1,135.37,229a41.64,41.64,0,0,1-20.07,27"/><path class="cls-1" d="M110.94,260.79c-2.6-3.59-5.61-8.46-9.15-11.13s-8.13-4.3-12.44-3.27a29,29,0,0,0,21.59,14.4"/><path class="cls-1" d="M111.78,256.25c-1.71-4.34-3.43-8.73-4.12-13.34s-.27-9.54,2.08-13.56c4.59,8.66,6.06,18,2.27,27"/><path class="cls-1" d="M115.14,229.35c2.6-8.59,10.46-14.92,19-17.82a7.19,7.19,0,0,1,3.32-.5,2.89,2.89,0,0,1,2.45,2.05c.31,1.46-.89,2.77-2,3.74a64.63,64.63,0,0,1-22.69,12.53"/><path class="cls-1" d="M115.23,222.32c.33-5.54.68-11.15,2.48-16.4S123,195.75,128,193.45c.86,5.6-1.6,11.16-4.58,16s-6.56,9.36-8.35,14.73"/><path class="cls-1" d="M115.1,226.13c-2.15-6.26-2.37-14.21-6.12-19.66-2.62-3.81-6.81-6.41-9.07-10.45a15.88,15.88,0,0,0,.53,11.86,34.3,34.3,0,0,0,6.93,9.93c2.78,3,5.15,5.19,7.73,8.32"/><path class="cls-1" d="M115.14,410.47c-.17,0-.31-41.76-.32-93.26s.11-93.26.28-93.26.31,41.75.32,93.26S115.31,410.47,115.14,410.47Z"/><path class="cls-1" d="M151.63,285.39a8.9,8.9,0,0,1-1.57.59l-4.32,1.45c-3.64,1.25-8.65,3-14.08,5.27s-10.45,4.18-13.34,6.68a9.85,9.85,0,0,0-2.68,3.55c-.41,1-.49,1.58-.54,1.57a1.08,1.08,0,0,1,0-.44,6.54,6.54,0,0,1,.3-1.22,9.5,9.5,0,0,1,2.62-3.78,23.37,23.37,0,0,1,5.79-3.59c2.31-1.08,4.88-2.21,7.6-3.33,5.45-2.23,10.49-4,14.18-5.11,1.84-.58,3.34-1,4.38-1.28A9,9,0,0,1,151.63,285.39Z"/><path class="cls-1" d="M163.59,256a2.49,2.49,0,0,1-.44.47l-1.34,1.26-5,4.54L140.16,277.1c-6.5,5.79-12.11,11.32-16,15.48-2,2.08-3.48,3.8-4.53,5L118.41,299a2.36,2.36,0,0,1-.45.46,2.41,2.41,0,0,1,.36-.53c.25-.34.62-.84,1.12-1.46,1-1.25,2.49-3,4.4-5.14a211,211,0,0,1,15.92-15.64c6.52-5.77,12.45-10.95,16.77-14.69l5.13-4.4,1.41-1.17A2.3,2.3,0,0,1,163.59,256Z"/><path class="cls-1" d="M133.14,283c-.17-.08,1.19-3.21,2.54-7.18s2-7.31,2.19-7.28a24.87,24.87,0,0,1-1.61,7.48,48.91,48.91,0,0,1-2,5A8,8,0,0,1,133.14,283Z"/><path class="cls-1" d="M115.18,308.26a7.25,7.25,0,0,1-1-1.16l-2.57-3.29c-2.15-2.79-5.13-6.63-8.47-10.84s-6.41-8-8.64-10.71L91.88,279a7.28,7.28,0,0,1-.9-1.24,7.51,7.51,0,0,1,1.08,1.09c.67.72,1.62,1.79,2.77,3.12,2.31,2.66,5.44,6.4,8.78,10.61s6.27,8.11,8.34,11c1,1.43,1.86,2.59,2.42,3.41A8.12,8.12,0,0,1,115.18,308.26Z"/><path class="cls-1" d="M107.18,298a14.66,14.66,0,0,1-3.35-6.28,17.58,17.58,0,0,1-.76-6.32l.26,0c-.12.48-.2.74-.25.73s0-.28,0-.77l.26,0a29.11,29.11,0,0,0,1.07,6.15C105.48,295.27,107.34,297.89,107.18,298Z"/><path class="cls-1" d="M96.85,285a10.51,10.51,0,0,0-2.34-1.36,15.59,15.59,0,0,0-6.5-.52,39.65,39.65,0,0,0-6.54,1.06,19.82,19.82,0,0,1-2.69.64,9.62,9.62,0,0,1,2.57-1.06A30.33,30.33,0,0,1,88,282.52a14.08,14.08,0,0,1,6.7.72A4.15,4.15,0,0,1,96.85,285Z"/><path class="cls-1" d="M94.4,281.85c-.05.09-1.36-.55-3.58-1.31a36.18,36.18,0,0,0-18.07-1.38c-2.31.42-3.71.85-3.74.75a3.16,3.16,0,0,1,.95-.4,20.26,20.26,0,0,1,2.7-.76A31.87,31.87,0,0,1,91,280.14a23.59,23.59,0,0,1,2.56,1.16C94.11,281.62,94.42,281.81,94.4,281.85Z"/><path class="cls-1" d="M115.1,268.53c-.16,0-1.33-4-2.62-9.08s-2.19-9.19-2-9.23,1.34,4,2.62,9.08S115.26,268.49,115.1,268.53Z"/><path class="cls-1" d="M115.27,268.53c-.18.06-.94-2.66-2.9-5.44a24.36,24.36,0,0,0-4.27-4.4,4.12,4.12,0,0,1,1.65.85,13.29,13.29,0,0,1,3.11,3.21A12.17,12.17,0,0,1,115.27,268.53Z"/><path class="cls-1" d="M115.14,388.21c-.06,0-.19-1-.66-2.78a39.16,39.16,0,0,0-2.79-7.23c-2.88-5.89-8.13-13.37-14.8-20.86-3.31-3.77-6.51-7.33-9.24-10.75a76.14,76.14,0,0,1-6.6-9.52A45.32,45.32,0,0,1,77.72,330c-.31-.87-.53-1.55-.66-2a3.31,3.31,0,0,1-.17-.72c.06,0,.36,1,1,2.66a50.34,50.34,0,0,0,3.48,6.94,80.4,80.4,0,0,0,6.67,9.39c2.73,3.37,5.94,6.91,9.25,10.7C104,364.45,109.27,372,112.08,378a36.31,36.31,0,0,1,2.63,7.35c.19.91.32,1.61.37,2.1A3.4,3.4,0,0,1,115.14,388.21Z"/><path class="cls-1" d="M148.11,351a13.24,13.24,0,0,1-1.72,1,39.63,39.63,0,0,0-4.49,3,51.55,51.55,0,0,0-5.88,5.37c-2.07,2.18-4.2,4.71-6.37,7.43-4.34,5.45-8.4,10.27-10.84,14.12-1.23,1.91-2.13,3.52-2.72,4.65a15.92,15.92,0,0,1-1,1.74,1.72,1.72,0,0,1,.16-.49c.13-.31.3-.78.58-1.36a44.64,44.64,0,0,1,2.57-4.77c2.36-3.94,6.39-8.83,10.73-14.27,2.18-2.72,4.33-5.26,6.44-7.44a47.13,47.13,0,0,1,6-5.32,30.37,30.37,0,0,1,4.63-2.83c.57-.29,1-.47,1.35-.6A1.71,1.71,0,0,1,148.11,351Z"/><path class="cls-1" d="M148.76,363.05a28.2,28.2,0,0,1-3.65.53,48.18,48.18,0,0,0-8.67,1.7,26.33,26.33,0,0,0-7.75,4.07c-1.79,1.38-2.63,2.53-2.72,2.46a2.92,2.92,0,0,1,.54-.84,15.17,15.17,0,0,1,1.91-2,23.38,23.38,0,0,1,7.84-4.31,39.08,39.08,0,0,1,8.8-1.56A20.19,20.19,0,0,1,148.76,363.05Z"/><path class="cls-1" d="M127,370.48c-.19-.1,1.46-2.62,2.73-6s1.48-6.41,1.7-6.37a6.25,6.25,0,0,1-.06,2,21.8,21.8,0,0,1-1.07,4.62,22.63,22.63,0,0,1-2.12,4.23C127.57,369.94,127.11,370.53,127,370.48Z"/><path class="cls-1" d="M158.79,318.53a2.83,2.83,0,0,1-.58.31l-1.72.78c-.75.32-1.66.73-2.69,1.27s-2.24,1.08-3.49,1.84l-2,1.13c-.69.4-1.38.87-2.1,1.32-1.47.89-2.95,2-4.52,3.11a77.5,77.5,0,0,0-17.37,18c-1.07,1.61-2.11,3.12-3,4.62-.43.74-.88,1.44-1.26,2.14s-.72,1.38-1.06,2c-.71,1.28-1.22,2.5-1.71,3.55s-.89,2-1.18,2.74-.53,1.28-.72,1.74a2.56,2.56,0,0,1-.3.59,3.41,3.41,0,0,1,.18-.63l.62-1.79a28.77,28.77,0,0,1,1.09-2.78c.47-1.07.95-2.31,1.64-3.61l1-2.06c.37-.71.81-1.42,1.23-2.18.83-1.52,1.87-3.05,2.93-4.68a74.53,74.53,0,0,1,17.5-18.11c1.59-1.11,3.09-2.2,4.58-3.08.74-.45,1.43-.91,2.13-1.3l2-1.11c1.27-.73,2.49-1.26,3.54-1.76a29.75,29.75,0,0,1,2.75-1.19l1.76-.68A3.12,3.12,0,0,1,158.79,318.53Z"/><path class="cls-1" d="M132.7,336a4.1,4.1,0,0,1,1.43-2.14,9,9,0,0,1,5.78-2.21,15.6,15.6,0,0,1,6.09,1.19,8.55,8.55,0,0,1,2.3,1.11,12.88,12.88,0,0,1-2.44-.71,18.37,18.37,0,0,0-5.93-1,9.39,9.39,0,0,0-5.52,1.94A15.47,15.47,0,0,0,132.7,336Z"/><path class="cls-1" d="M128.8,340c-.17-.1,1.3-2.25,1.64-5.35s-.55-5.52-.37-5.57.39.54.68,1.55a11.19,11.19,0,0,1,.29,4.09,11,11,0,0,1-1.23,3.92C129.3,339.6,128.85,340.08,128.8,340Z"/><path class="cls-1" d="M86.3,394.19c.9,16,5.71,32.19,13.11,48.59h32.16c7.05-16.24,11.53-32.44,12.33-48.59Z"/><path class="cls-2" d="M138.68,420c0,.17-10.59.3-23.65.3s-23.65-.13-23.65-.3,10.59-.3,23.65-.3S138.68,419.85,138.68,420Z"/><path class="cls-2" d="M138,425.79c0,.17-9.92.31-22.17.31s-22.17-.14-22.17-.31,9.93-.3,22.17-.3S138,425.63,138,425.79Z"/><path class="cls-2" d="M99.93,404.67a91.54,91.54,0,0,1,0,14.81c-.17,0-.31-3.31-.31-7.4S99.76,404.67,99.93,404.67Z"/><path class="cls-2" d="M117.16,404.67c.17,0,.3,3.43.3,7.67s-.13,7.67-.3,7.67-.3-3.43-.3-7.67S117,404.67,117.16,404.67Z"/><path class="cls-2" d="M133.34,404.54a102.2,102.2,0,0,1,0,15.65c-.17,0-.31-3.5-.31-7.83S133.17,404.54,133.34,404.54Z"/><path class="cls-2" d="M142.87,404.67c0,.16-12.42.3-27.73.3s-27.75-.14-27.75-.3,12.42-.3,27.75-.3S142.87,404.5,142.87,404.67Z"/><rect class="cls-3" x="392.56" y="5.73" width="236.25" height="216.49"/><rect class="cls-2" x="402.61" y="13.86" width="216.02" height="199.94"/><rect class="cls-3" x="510.6" y="10.12" width="5.59" height="203.71"/><path class="cls-2" d="M613.08,89.46l1.31.72-1.32.71a4.16,4.16,0,0,0-1.63,1.62l-.72,1.31L610,92.5a4.1,4.1,0,0,0-1.62-1.63l-1.31-.72,1.32-.71A4,4,0,0,0,610,87.82l.72-1.31.71,1.32A4.16,4.16,0,0,0,613.08,89.46Z"/><path class="cls-2" d="M515.7,86.52l.52.29-.52.28a1.52,1.52,0,0,0-.64.64l-.29.51-.28-.52a1.64,1.64,0,0,0-.64-.64l-.52-.29.52-.28a1.6,1.6,0,0,0,.65-.64l.28-.51.28.52A1.64,1.64,0,0,0,515.7,86.52Z"/><rect class="cls-4" x="383.05" y="59.17" width="254.71" height="7.55"/><rect class="cls-4" x="383.05" y="44.86" width="254.71" height="7.55"/><rect class="cls-4" x="383.05" y="30.56" width="254.71" height="7.55"/><rect class="cls-4" x="383.05" y="16.26" width="254.71" height="7.55"/><rect class="cls-4" x="383.05" y="1.95" width="254.71" height="7.55"/><rect class="cls-4" x="383.05" y="128.77" width="254.71" height="7.55"/><rect class="cls-4" x="383.05" y="114.47" width="254.71" height="7.55"/><rect class="cls-4" x="383.05" y="100.17" width="254.71" height="7.55"/><rect class="cls-4" x="383.05" y="85.86" width="254.71" height="7.55"/><rect class="cls-4" x="383.05" y="71.56" width="254.71" height="7.55"/><rect class="cls-1" x="286.39" y="16.75" width="9.01" height="44.85" transform="translate(-0.21 1.56) rotate(-0.31)"/><rect class="cls-3" x="208.26" y="16.9" width="23.34" height="24.76" transform="translate(-0.15 1.18) rotate(-0.31)"/><rect class="cls-4" x="231.49" y="16.78" width="23.34" height="24.76" transform="translate(-0.15 1.3) rotate(-0.31)"/><path class="cls-1" d="M208.23,23.8c15.51.13,31.06,0,46.57-.21a.25.25,0,0,0,0-.5c-15.51-.08-31.06,0-46.57.29a.21.21,0,0,0,0,.42Z"/><rect class="cls-3" x="193.7" y="41.3" width="42.4" height="20.18" transform="translate(-0.27 1.15) rotate(-0.31)"/><rect class="cls-4" x="235.9" y="41.07" width="42.4" height="20.18" transform="translate(-0.27 1.38) rotate(-0.31)"/><path class="cls-1" d="M193.67,47c28.17.32,56.44,0,84.61-.42a.25.25,0,0,0,0-.49c-28.18-.15-56.44-.13-84.61.49a.21.21,0,0,0,0,.42Z"/><rect class="cls-1" x="177.82" y="61.59" width="164.28" height="7.23"/><rect class="cls-1" x="204.71" y="65.06" width="6.67" height="24.66"/><rect class="cls-1" x="304.27" y="65.06" width="6.67" height="24.66"/><rect class="cls-3" x="295.23" y="0.02" width="9.01" height="61.68" transform="translate(-0.16 1.61) rotate(-0.31)"/><rect class="cls-4" x="304.29" y="11.52" width="14" height="49.98" transform="translate(-0.19 1.67) rotate(-0.31)"/><path class="cls-1" d="M318.07,21.11a51.91,51.91,0,0,1-7,.24,51.82,51.82,0,0,1-7-.24,51.82,51.82,0,0,1,7-.24A51.91,51.91,0,0,1,318.07,21.11Z"/><path class="cls-1" d="M318.07,19a51.91,51.91,0,0,1-7,.24,51.82,51.82,0,0,1-7-.24,51.82,51.82,0,0,1,7-.24A51.91,51.91,0,0,1,318.07,19Z"/><path class="cls-1" d="M318.07,53.94a49,49,0,0,1-7,.25,49,49,0,0,1-7-.25,51.82,51.82,0,0,1,7-.24A51.91,51.91,0,0,1,318.07,53.94Z"/><path class="cls-1" d="M318.07,51.84a49,49,0,0,1-7,.25,49,49,0,0,1-7-.25,51.82,51.82,0,0,1,7-.24A51.91,51.91,0,0,1,318.07,51.84Z"/><path class="cls-1" d="M311.29,47.26c-.13,0-.24-5-.24-11.26s.11-11.26.24-11.26.24,5,.24,11.26S311.42,47.26,311.29,47.26Z"/><rect class="cls-3" x="318.22" y="23.76" width="15.24" height="37.73"/><path class="cls-1" d="M302,10.53a2.59,2.59,0,1,1-2.59-2.59A2.59,2.59,0,0,1,302,10.53Z"/><rect class="cls-1" x="298.64" y="17.65" width="1.6" height="36.69"/></g><g id="Floor"><path class="cls-5" d="M680.94,441.4c0,.14-152.44.26-340.45.26S0,441.54,0,441.4s152.41-.26,340.49-.26S680.94,441.25,680.94,441.4Z"/></g><g id="Nightstand"><rect class="cls-6" x="533.99" y="297.04" width="125.14" height="95.19"/><g class="cls-7"><rect x="590.21" y="297.04" width="68.92" height="95.19"/></g><polygon class="cls-6" points="571.79 392.23 556 441.4 560.63 441.4 582.67 392.23 571.79 392.23"/><polygon class="cls-6" points="628.73 392.23 644.52 441.4 639.89 441.4 617.85 392.23 628.73 392.23"/><path class="cls-5" d="M660.18,392.69c0,.14-28.18.26-62.94.26s-63-.12-63-.26,28.18-.26,63-.26S660.18,392.55,660.18,392.69Z"/><path class="cls-5" d="M587.49,322.27a1.67,1.67,0,0,1,0-.38c0-.27,0-.62,0-1.07,0-1,0-2.33-.05-4.08,0-3.55,0-8.64-.1-14.93l.19.19-51,.07.25-.25h0v10.5c0,3.42,0,6.75,0,9.94l-.25-.25,36.5.12,10.63.07,2.86,0h.74l.27,0-.24,0h-.71l-2.81,0-10.57.07-36.67.12h-.25V312.33c0-1.71,0-3.44,0-5.2v-5.3h0l.27-.27,51,.08h.18v.18c0,6.34-.08,11.47-.1,15,0,1.73,0,3.09-.05,4,0,.44,0,.78,0,1S587.49,322.28,587.49,322.27Z"/><path class="cls-5" d="M565.05,311.65s-.06-.27-.2-.72a3,3,0,0,0-1.12-1.56A2.91,2.91,0,0,0,561,309a2.82,2.82,0,0,0,0,5.29,2.91,2.91,0,0,0,2.7-.36,3,3,0,0,0,1.12-1.56c.14-.45.15-.73.2-.73a1.45,1.45,0,0,1,0,.78,3,3,0,0,1-1.1,1.8,3.21,3.21,0,0,1-3.08.52,3.28,3.28,0,0,1,0-6.19,3.21,3.21,0,0,1,3.08.52,3,3,0,0,1,1.1,1.8A1.39,1.39,0,0,1,565.05,311.65Z"/><path class="cls-5" d="M584.81,357s0-.27-.19-.72a3.07,3.07,0,0,0-1.13-1.56,2.84,2.84,0,1,0,0,4.56,3.07,3.07,0,0,0,1.13-1.56c.14-.45.15-.72.19-.72s.09.27,0,.77a3.1,3.1,0,0,1-1.1,1.81,3.28,3.28,0,1,1,0-5.16,3.1,3.1,0,0,1,1.1,1.81C584.9,356.69,584.84,357,584.81,357Z"/><path class="cls-5" d="M587,385.54s0-.1,0-.28,0-.48,0-.83q0-1.11,0-3.18c0-2.79,0-6.84-.06-12,0-10.28-.07-24.9-.12-42.32l.23.23-50.54,0h0l.26-.26c0,21.61,0,41.75,0,58.58l-.22-.22,36.63.12,10.26.05,2.72,0,.94,0-.9,0-2.67,0-10.21.06-36.77.11h-.22v-.22c0-16.83,0-37,0-58.58v-.26h.27l50.54,0h.23V327c0,17.48-.08,32.15-.11,42.47,0,5.11,0,9.14-.06,11.92,0,1.36,0,2.4,0,3.13,0,.34,0,.6,0,.8A1.1,1.1,0,0,1,587,385.54Z"/></g><g id="Picture"><rect class="cls-8" x="25.99" y="16.3" width="120.96" height="156.22"/><path class="cls-5" d="M147,16.3a1.84,1.84,0,0,1-.33.42l-1,1.17-4.09,4.48,0,.05h-.08c-10.52.1-31.18.18-54.9.18s-44.39-.08-54.9-.18h-.08l0-.05-4.08-4.48-1-1.17A1.84,1.84,0,0,1,26,16.3a2.25,2.25,0,0,1,.4.36l1.1,1.11,4.2,4.37-.12-.05c10.51-.11,31.18-.18,54.9-.18s44.38.07,54.9.18l-.12.05,4.2-4.37,1.1-1.11A2.25,2.25,0,0,1,147,16.3Z"/><path class="cls-5" d="M26,172.53a2.56,2.56,0,0,1,.33-.42l1-1.17,4.08-4.48,0-.05h.08c10.51-.11,31.18-.18,54.9-.18s44.38.07,54.9.18h.08l0,.05,4.09,4.48,1,1.17a2.56,2.56,0,0,1,.33.42,2.25,2.25,0,0,1-.4-.36l-1.1-1.11-4.2-4.37.12.06c-10.52.1-31.18.18-54.9.18s-44.39-.08-54.9-.18l.12-.06-4.2,4.37-1.1,1.11A2.25,2.25,0,0,1,26,172.53Z"/><rect class="cls-9" x="31.57" y="22.26" width="109.8" height="144.32"/><path class="cls-10" d="M48.75,125.13c3.27-3.12,8.09-4,12.6-3.88s9,1.06,13.48,1c7.22-.09,14.4-2.76,21.51-1.53,2.27.39,4.58,1.18,6.83.7,2-.42,3.63-1.77,5.57-2.34,5-1.5,10.64,2.42,15.45.38v32.21H48.75Z"/><path class="cls-5" d="M50.27,125.67c-.19,0-.35-19.09-.35-42.62s.16-42.62.35-42.62.35,19.08.35,42.62S50.46,125.67,50.27,125.67Z"/><path class="cls-5" d="M53.7,125.67c-.19,0-.35-19.09-.35-42.62s.16-42.62.35-42.62.35,19.08.35,42.62S53.9,125.67,53.7,125.67Z"/><path class="cls-5" d="M57.14,125.67c-.19,0-.35-19.09-.35-42.62s.16-42.62.35-42.62.35,19.08.35,42.62S57.33,125.67,57.14,125.67Z"/><path class="cls-5" d="M60.57,125.67c-.19,0-.35-19.09-.35-42.62s.16-42.62.35-42.62.35,19.08.35,42.62S60.77,125.67,60.57,125.67Z"/><path class="cls-5" d="M64,125.67c-.2,0-.35-19.09-.35-42.62s.15-42.62.35-42.62.35,19.08.35,42.62S64.2,125.67,64,125.67Z"/><path class="cls-5" d="M67.44,125.67c-.19,0-.35-19.09-.35-42.62s.16-42.62.35-42.62.35,19.08.35,42.62S67.64,125.67,67.44,125.67Z"/><path class="cls-5" d="M70.88,125.67c-.2,0-.35-19.09-.35-42.62s.15-42.62.35-42.62.35,19.08.35,42.62S71.07,125.67,70.88,125.67Z"/><path class="cls-5" d="M74.31,125.67c-.19,0-.35-19.09-.35-42.62s.16-42.62.35-42.62.35,19.08.35,42.62S74.51,125.67,74.31,125.67Z"/><path class="cls-5" d="M77.75,125.67c-.2,0-.35-19.09-.35-42.62s.15-42.62.35-42.62.35,19.08.35,42.62S77.94,125.67,77.75,125.67Z"/><path class="cls-5" d="M81.18,125.67c-.19,0-.35-19.09-.35-42.62s.16-42.62.35-42.62.35,19.08.35,42.62S81.37,125.67,81.18,125.67Z"/><path class="cls-5" d="M84.62,125.67c-.2,0-.35-19.09-.35-42.62s.15-42.62.35-42.62S85,59.51,85,83.05,84.81,125.67,84.62,125.67Z"/><path class="cls-5" d="M88.05,125.67c-.19,0-.35-19.09-.35-42.62s.16-42.62.35-42.62.35,19.08.35,42.62S88.24,125.67,88.05,125.67Z"/><path class="cls-5" d="M91.48,125.67c-.19,0-.35-19.09-.35-42.62s.16-42.62.35-42.62.36,19.08.36,42.62S91.68,125.67,91.48,125.67Z"/><path class="cls-5" d="M94.92,125.67c-.19,0-.35-19.09-.35-42.62s.16-42.62.35-42.62.35,19.08.35,42.62S95.11,125.67,94.92,125.67Z"/><path class="cls-5" d="M98.35,125.67c-.19,0-.35-19.09-.35-42.62s.16-42.62.35-42.62.35,19.08.35,42.62S98.55,125.67,98.35,125.67Z"/><path class="cls-5" d="M101.79,125.67c-.19,0-.35-19.09-.35-42.62s.16-42.62.35-42.62.35,19.08.35,42.62S102,125.67,101.79,125.67Z"/><path class="cls-5" d="M105.22,125.67c-.19,0-.35-19.09-.35-42.62s.16-42.62.35-42.62.35,19.08.35,42.62S105.42,125.67,105.22,125.67Z"/><path class="cls-5" d="M108.66,125.67c-.2,0-.35-19.09-.35-42.62s.15-42.62.35-42.62.35,19.08.35,42.62S108.85,125.67,108.66,125.67Z"/><path class="cls-5" d="M112.09,125.67c-.19,0-.35-19.09-.35-42.62s.16-42.62.35-42.62.35,19.08.35,42.62S112.29,125.67,112.09,125.67Z"/><path class="cls-5" d="M115.53,125.67c-.2,0-.35-19.09-.35-42.62s.15-42.62.35-42.62.35,19.08.35,42.62S115.72,125.67,115.53,125.67Z"/><path class="cls-5" d="M119,125.67c-.19,0-.35-19.09-.35-42.62s.16-42.62.35-42.62.35,19.08.35,42.62S119.15,125.67,119,125.67Z"/><path class="cls-5" d="M122.4,125.67c-.2,0-.35-19.09-.35-42.62s.15-42.62.35-42.62.35,19.08.35,42.62S122.59,125.67,122.4,125.67Z"/></g><g id="Clock"><rect class="cls-1" x="559.71" y="251.68" width="3.18" height="1.4" transform="translate(-31.55 87.22) rotate(-8.64)"/><rect class="cls-1" x="561.32" y="252.61" width="0.69" height="4.32" transform="translate(-31.91 87.3) rotate(-8.64)"/><polygon class="cls-1" points="553.9 286.82 552.95 291.13 554.15 291.77 556.95 288.57 553.9 286.82"/><polygon class="cls-1" points="573.62 285.92 577.37 288.24 578.37 287.32 576.28 283.62 573.62 285.92"/><rect class="cls-10" x="547.37" y="252.67" width="2.13" height="1.55" transform="translate(-48.94 343.78) rotate(-33.4)"/><rect class="cls-10" x="550.95" y="255.62" width="1.25" height="4.78" transform="translate(-50.93 346.26) rotate(-33.4)"/><rect class="cls-10" x="573.79" y="250.07" width="2.13" height="1.55" transform="translate(190.01 -244.4) rotate(28.58)"/><rect class="cls-10" x="571.99" y="253.51" width="1.25" height="4.78" transform="translate(192.18 -242.74) rotate(28.58)"/><circle class="cls-10" cx="563.4" cy="272.51" r="17.4" transform="translate(51.02 631.88) rotate(-60.86)"/><path class="cls-5" d="M580.6,269.89a27.66,27.66,0,0,0-1.27-4.08,16.46,16.46,0,0,0-2.61-4.24,17.38,17.38,0,0,0-5.08-4.16,17.17,17.17,0,0,0-16.45,0,16.39,16.39,0,0,0-3.94,3,20.84,20.84,0,0,0-1.67,1.93,19,19,0,0,0-1.36,2.21,17.1,17.1,0,0,0,3,20,15.29,15.29,0,0,0,4.14,3.06,16.06,16.06,0,0,0,4.64,1.67,17.28,17.28,0,0,0,9-.61,17.29,17.29,0,0,0,10.3-9.73,16.65,16.65,0,0,0,1.23-4.82,27.69,27.69,0,0,0,0-4.28,1.18,1.18,0,0,1,.06.28c0,.22.06.49.1.82a7.44,7.44,0,0,1,.1,1.35,12,12,0,0,1-.06,1.85,16.38,16.38,0,0,1-1.16,4.91,17.52,17.52,0,0,1-10.43,10,17.63,17.63,0,0,1-9.27.67,16.49,16.49,0,0,1-4.78-1.7,20.06,20.06,0,0,1-2.24-1.37,22.32,22.32,0,0,1-2-1.76,17.54,17.54,0,0,1-3.13-20.64,18.06,18.06,0,0,1,1.4-2.28,20.78,20.78,0,0,1,1.73-2,16.4,16.4,0,0,1,4.06-3,17.51,17.51,0,0,1,16.86.06,17.41,17.41,0,0,1,5.13,4.3,16.34,16.34,0,0,1,2.57,4.35,12.08,12.08,0,0,1,.6,1.74,8.11,8.11,0,0,1,.31,1.32l.14.81A1,1,0,0,1,580.6,269.89Z"/><circle class="cls-9" cx="563.3" cy="272.52" r="15.63" transform="translate(-31.22 467.77) rotate(-44)"/><path class="cls-10" d="M563.27,288.66a16.13,16.13,0,1,1,16-18.56h0a16.13,16.13,0,0,1-13.53,18.37A15.65,15.65,0,0,1,563.27,288.66Zm0-31.27a16,16,0,0,0-2.28.17,15.13,15.13,0,0,0-6.7,27.15,15.13,15.13,0,0,0,23.93-14.46h0A15.16,15.16,0,0,0,563.31,257.39Z"/><path class="cls-5" d="M563,273.32c0,.18.22,4.39.22,4.39l.92,3.52.24-3.79-.64-4.23Z"/><path class="cls-5" d="M564.27,270.92c.16-.09,5.92-4,5.92-4l2.54-2.6-3.37,1.74-5.56,4.29Z"/><path class="cls-5" d="M565.16,271.31a1.93,1.93,0,1,1-2.19-1.62A1.93,1.93,0,0,1,565.16,271.31Z"/><path class="cls-10" d="M545.39,261.8s-2.53-4.29,3-8.13,8.93-.29,8.93-.29Z"/><path class="cls-5" d="M545.39,261.8a8.64,8.64,0,0,1,.92-.74l2.49-1.86c2.11-1.56,5-3.68,8.32-6l0,.38a5.44,5.44,0,0,0-1.88-1.09,7.13,7.13,0,0,0-6.05,1,9.16,9.16,0,0,0-3.64,3.66,5.51,5.51,0,0,0-.47,3.43c.15.83.39,1.25.35,1.27a2.72,2.72,0,0,1-.55-1.22,5.51,5.51,0,0,1,.33-3.63A9.31,9.31,0,0,1,548.9,253a9,9,0,0,1,3-1.25,6.41,6.41,0,0,1,3.49.19,5.6,5.6,0,0,1,2.08,1.23l.22.2-.25.19c-3.41,2.4-6.45,4.49-8.61,6l-2.53,1.7A6.57,6.57,0,0,1,545.39,261.8Z"/><path class="cls-10" d="M566.07,252s2.6-4.24,8.57-1.21,4.45,7.74,4.45,7.74Z"/><path class="cls-5" d="M566.07,252a9.26,9.26,0,0,1,1.09.47l2.81,1.32c2.36,1.13,5.6,2.69,9.23,4.51l-.36.15a5.28,5.28,0,0,0,.08-2.18,7.09,7.09,0,0,0-3.71-4.88,9.16,9.16,0,0,0-4.94-1.49,5.51,5.51,0,0,0-3.25,1.2,12.93,12.93,0,0,0-.95.9,2.66,2.66,0,0,1,.82-1.06,5.48,5.48,0,0,1,3.36-1.41A10.6,10.6,0,0,1,578,253a6.5,6.5,0,0,1,1.47,3.17,5.79,5.79,0,0,1-.11,2.42l-.08.29-.28-.14c-3.73-1.88-7-3.58-9.3-4.8L567,252.53A6.46,6.46,0,0,1,566.07,252Z"/><path class="cls-1" d="M546.61,254.17s-.64-1.08.75-2.06a1.69,1.69,0,0,1,2.26-.07Z"/><path class="cls-5" d="M546.61,254.17a23.78,23.78,0,0,1,2.86-2.34l0,.39a1.28,1.28,0,0,0-.4-.23,1.63,1.63,0,0,0-1.37.22,2.33,2.33,0,0,0-.89.83,2.25,2.25,0,0,0-.16,1.13s-.13-.07-.21-.29a1.41,1.41,0,0,1,0-1,2.41,2.41,0,0,1,1-1.09,2,2,0,0,1,1.79-.3,1.48,1.48,0,0,1,.6.36l.23.21-.26.18A17.51,17.51,0,0,1,546.61,254.17Z"/><path class="cls-1" d="M573.36,249.57s.65-1.07,2.16-.3,1.13,2,1.13,2Z"/><path class="cls-5" d="M573.36,249.57a24.83,24.83,0,0,1,3.41,1.42l-.37.16a1.16,1.16,0,0,0,0-.46,1.68,1.68,0,0,0-.84-1.12,2.29,2.29,0,0,0-1.15-.39,2.2,2.2,0,0,0-1.07.39s0-.15.16-.32a1.4,1.4,0,0,1,.89-.44,2.46,2.46,0,0,1,1.41.35,2,2,0,0,1,1.11,1.44,1.66,1.66,0,0,1,0,.7l-.09.3-.28-.14A17.75,17.75,0,0,1,573.36,249.57Z"/><path class="cls-1" d="M564.37,271.52a1.06,1.06,0,0,1-.89,1.2,1.06,1.06,0,0,1-.32-2.09A1.06,1.06,0,0,1,564.37,271.52Z"/><path class="cls-5" d="M537.29,259.22a4.65,4.65,0,0,1,0-1.86,12.14,12.14,0,0,1,1.43-4.27,12.45,12.45,0,0,1,2.84-3.49,4.64,4.64,0,0,1,1.57-1,16.26,16.26,0,0,0-5.86,10.63Z"/><path class="cls-5" d="M532.32,258.94a4,4,0,0,1-.1-1.74,11.53,11.53,0,0,1,3.64-7.44,4.06,4.06,0,0,1,1.44-1,19.76,19.76,0,0,0-3.49,4.61A19.49,19.49,0,0,0,532.32,258.94Z"/><path class="cls-5" d="M584.37,250.69a15,15,0,0,0-10.44-6.18,4.47,4.47,0,0,1,1.87,0,11.87,11.87,0,0,1,7.66,4.53A4.65,4.65,0,0,1,584.37,250.69Z"/><path class="cls-5" d="M585.37,246.37a16.34,16.34,0,0,0-9.33-5.58,10.94,10.94,0,0,1,9.33,5.58Z"/></g><g id="Lamp"><path class="cls-8" d="M648.71,273.29c-2-10.25-7.62-13-15.23-16.59S629.16,245,629.16,245h-4.44s3.3,8.12-4.31,11.67-13.2,6.34-15.23,16.59,3.3,24,3.3,24l18.46-.22,18.47.22S650.74,283.55,648.71,273.29Z"/><path class="cls-2" d="M592.83,247.29h69.54l-17.59-40.43H608Z"/><path class="cls-5" d="M592.83,247.29s.08-.24.25-.71l.78-2.13c.7-1.9,1.71-4.65,3-8.16,2.63-7.1,6.39-17.24,11-29.51l0-.14H608l36.76,0H645l.07.16,6.71,15.43,10.86,25,.16.35h-.38l-50-.13L598,247.34l-3.83,0-1,0a1.64,1.64,0,0,1-.33,0h1.38l3.89,0,14.5-.07,49.77-.13-.23.35c-3.4-7.81-7.08-16.25-10.88-25L644.55,207l.23.16-36.76,0,.2-.14c-4.62,12.16-8.45,22.22-11.12,29.27-1.35,3.51-2.4,6.27-3.13,8.17-.36.93-.64,1.65-.83,2.16S592.83,247.29,592.83,247.29Z"/></g><g id="Character"><path class="cls-11" d="M236,68.48c-.26,1.43,4.29,31.7,8.05,45.88s16.71,53.44,19.08,59.33L280.42,156S266.31,127.83,265,118.81s-7.51-24-12.06-33.71-8-19.7-8-19.7Z"/><path class="cls-11" d="M239.06,40.32s-3.25,3.94-3.95,6.15-2.09,10-2,13.12,3.1,11.65,3.1,11.65l10.65-.38-1.17-4.22s9.82-5.78,9.59-8.21-8-14-8.71-14.63-2.43,0-3.36.7-3.6,4.87-3.6,4.87,1.26-4,1.62-5.45C242.19,40.32,239.06,40.32,239.06,40.32Z"/><path class="cls-5" d="M344.45,103.63c5.41,1.24,10,5.46,11.31,10.38a12.19,12.19,0,0,1-5.12,13.14,4.62,4.62,0,0,1,.18,7.19,5.91,5.91,0,0,1-7.85-1.42c.62,2.72-1.59,5.43-4.48,6.1a10.16,10.16,0,0,1-8.46-2.31,15.73,15.73,0,0,1-4.66-7.2l4.52-21.39C333.11,104.23,339,102.4,344.45,103.63Z"/><path class="cls-5" d="M338,135.65a7.77,7.77,0,0,0,2.24-9.71c1.88-1.3,2.2-4.08,1.33-6.19s-2.62-3.7-4.32-5.22a10.46,10.46,0,0,0-9.43-10.87c-1.43-4.6-6.76-6.88-11.57-6.94a12.38,12.38,0,0,1-3.5-.29,19.14,19.14,0,0,1-2.35-1.08c-4.31-2-9.74-.18-12.76,3.47a8.69,8.69,0,0,1-1.55,1.65,11.69,11.69,0,0,1-2.77,1.1A7.54,7.54,0,0,0,288.9,106c-.6,1.72-.61,3.74-1.83,5.1-.61.69-1.48,1.13-2,1.87-1.56,2.14.35,5.4-.9,7.74-.26.48-.63.88-.93,1.34a4.67,4.67,0,0,0-.67,3.18,6.43,6.43,0,0,1,.29,2.52,7.41,7.41,0,0,1-.91,1.71c-.76,1.39.7,8.1,1.73,9.3l38.28,12.06a7.48,7.48,0,0,0,7.43-4.48,2.84,2.84,0,0,1,.79-1.3,3.34,3.34,0,0,1,1.26-.36c2.88-.57,4.21-3.87,4.8-6.75a3.86,3.86,0,0,1,.38-1.16A4.33,4.33,0,0,1,338,135.65Z"/><path class="cls-11" d="M326.93,132.35c2.19-6.76.32-15.87-5.42-21.25-3.61-3.39-6.93-4.42-9.08-5.36a16.21,16.21,0,0,0-9.63-.87c-2.27-.15-12.19,4.58-14.95,12.16-3.06,8.42-6.46,18.82-7.32,25.52-1.74,13.48,7.64,18,7.64,18l-7.41,21,29.42-2.3Z"/><path class="cls-12" d="M299.31,146.19a5.63,5.63,0,0,0-.14-2.72c-.61-1.06-2-.69-3.18-.37s-2,.65-2,.65l.11,2c.27.9.6,2.11,1.46,2.5l.41.16a2.62,2.62,0,0,0,2,0A3.46,3.46,0,0,0,299.31,146.19Z"/><path class="cls-5" d="M287.52,127.13c.12.29,1.68-.17,3.41.48s2.69,2,3,1.84.06-.52-.34-1.13a4.74,4.74,0,0,0-2.27-1.73,4.53,4.53,0,0,0-2.82-.11C287.78,126.69,287.46,127,287.52,127.13Z"/><path class="cls-5" d="M295.63,139.92a12.36,12.36,0,0,0-2.73-1.37c-.44-.18-.84-.39-.83-.73a2.39,2.39,0,0,1,.7-1.25l2.35-3.06c3.31-4.37,5.85-8,5.67-8.15s-3,3.3-6.31,7.67c-.8,1.09-1.57,2.12-2.3,3.1a2.71,2.71,0,0,0-.76,1.71,1.19,1.19,0,0,0,.55.89,3.32,3.32,0,0,0,.74.33A12.27,12.27,0,0,0,295.63,139.92Z"/><path class="cls-12" d="M288.17,160.56a34.34,34.34,0,0,0,18.65.49s-7.25,7.72-19.78,2.73Z"/><path class="cls-5" d="M292.61,116.08c.17.52,1.62.63,3.17,1.23s2.74,1.4,3.21,1.12c.21-.15.16-.62-.26-1.22a5.11,5.11,0,0,0-2.31-1.67,4.93,4.93,0,0,0-2.83-.22C292.88,115.5,292.54,115.83,292.61,116.08Z"/><path class="cls-5" d="M310.87,135c-.27.15-1.2-1.18-3-1.77s-3.34-.13-3.46-.41c-.06-.13.28-.44,1-.66a4.76,4.76,0,0,1,2.86.07,4.53,4.53,0,0,1,2.27,1.67C311,134.45,311,134.9,310.87,135Z"/><path class="cls-5" d="M315.58,123.73c-.48.29-1.7-.58-3.32-1.14s-3.1-.74-3.27-1.27c-.07-.25.28-.57,1-.75a5.59,5.59,0,0,1,5.31,1.94C315.75,123.12,315.8,123.59,315.58,123.73Z"/><path class="cls-11" d="M321.28,143.94c.28-1,2.05-2.9,3-2.77,2.65.35,7.14,1.89,5.3,8.33-2.52,8.79-10.83,4.45-10.77,4.19S320.3,147.24,321.28,143.94Z"/><path class="cls-12" d="M322.2,151.17s.12.15.34.35a1.63,1.63,0,0,0,1.14.35c1-.08,2.23-1.33,2.73-2.9a5.36,5.36,0,0,0,.2-2.32,1.8,1.8,0,0,0-.82-1.5.8.8,0,0,0-1,.16c-.19.21-.18.4-.23.4s-.15-.2,0-.54a1,1,0,0,1,.51-.45,1.2,1.2,0,0,1,.91,0,2.22,2.22,0,0,1,1.21,1.82,5.43,5.43,0,0,1-.17,2.6c-.57,1.76-1.95,3.15-3.32,3.16a1.71,1.71,0,0,1-1.34-.64C322.15,151.39,322.16,151.18,322.2,151.17Z"/><path class="cls-5" d="M285.87,116.58a5.32,5.32,0,0,0,4.18-3.88c1.07.7,2.71-.47,3.7-1.28s2-1.08,2.28-2.32a1.39,1.39,0,0,1,.3-.69,1.58,1.58,0,0,1,1.12-.28,6.13,6.13,0,0,0,5.08-2.94,13,13,0,0,0,5.72,2.76,5,5,0,0,0,8.14,2,4.47,4.47,0,0,0,2.23,2.94,13.23,13.23,0,0,0,3.59,1.27,5.23,5.23,0,0,0,1.63,6.67c.28.19.62.39.67.73s-.21.65-.42.94a4.12,4.12,0,0,0,1.17,5.82,3.09,3.09,0,0,0-1.1,4.71c.26.28.61.64.45,1a.84.84,0,0,1-.3.32,6,6,0,0,0-2.24,2.49,2.22,2.22,0,0,0,1.05,2.86,3,3,0,0,0-1.68,1.59c-.24.76.31,1.77,1.1,1.7.34,0,5,.4,5.23.2,3.47-2.64,1.45-7.29,2.43-11.54a28.3,28.3,0,0,0-.3-13,20.68,20.68,0,0,0-1.87-5.14,28.05,28.05,0,0,0-3.78-5,25.13,25.13,0,0,0-6.05-5.42c-4.41-2.51-9.83-2.24-14.85-1.5a21.5,21.5,0,0,0-5.6,1.4,19.58,19.58,0,0,0-5.56,4.07,24.28,24.28,0,0,0-5.82,8"/><path class="cls-8" d="M285.05,113a3.7,3.7,0,0,1,.75-.81c.28-.23.64-.5,1-.86a4.14,4.14,0,0,0,1-1.49,13.6,13.6,0,0,0,.61-2.18,10.08,10.08,0,0,1,.83-2.59,7.6,7.6,0,0,1,2-2.42,7.53,7.53,0,0,1,1.44-.92,11.72,11.72,0,0,1,1.69-.62,5.48,5.48,0,0,0,1.67-.76,6.79,6.79,0,0,0,1.32-1.4,11.83,11.83,0,0,1,3.14-2.76,11.7,11.7,0,0,1,4.17-1.61,10.76,10.76,0,0,1,2.35-.17,9.84,9.84,0,0,1,2.38.42,10.06,10.06,0,0,1,1.15.44c.38.18.74.38,1.11.56a5.9,5.9,0,0,0,2.34.7c.83.07,1.68,0,2.55.06a15.45,15.45,0,0,1,2.62.29,17.17,17.17,0,0,1,2.58.74,13.92,13.92,0,0,1,2.43,1.24,8.91,8.91,0,0,1,3.55,4.22l.2.53-.12-.1a10.6,10.6,0,0,1,9.55,11l0-.11a28.18,28.18,0,0,1,2.59,2.53,9.82,9.82,0,0,1,1.85,3,6.24,6.24,0,0,1,.24,3.36,4.34,4.34,0,0,1-1.71,2.72l0-.15A7.59,7.59,0,0,1,341,131a7.79,7.79,0,0,1-2.21,4.09,6.93,6.93,0,0,1-.84.7,8.83,8.83,0,0,0-.83.6,2,2,0,0,0-.57.77,4.79,4.79,0,0,0-.24.92,15.58,15.58,0,0,1-1.08,3.3,7.19,7.19,0,0,1-1.62,2.27,4.33,4.33,0,0,1-1.78,1c-.54.17-1,.17-1.25.26a2.59,2.59,0,0,0-.4.17,1,1,0,0,1,.39-.2c.27-.11.71-.12,1.24-.29a4.46,4.46,0,0,0,1.73-1,7.06,7.06,0,0,0,1.57-2.26,15.24,15.24,0,0,0,1-3.28,4.86,4.86,0,0,1,.25-.94,2.17,2.17,0,0,1,.6-.84,10.25,10.25,0,0,1,.85-.62,7.48,7.48,0,0,0,.81-.68,7.59,7.59,0,0,0,2.13-4,7.33,7.33,0,0,0-.68-5l0-.09.09-.06a4.1,4.1,0,0,0,1.61-2.57,6.09,6.09,0,0,0-.25-3.24,9.3,9.3,0,0,0-1.8-2.9,27.93,27.93,0,0,0-2.58-2.51l-.05,0v-.07a10.35,10.35,0,0,0-9.31-10.72h-.09l0-.09c-.07-.17-.13-.34-.19-.51A8.69,8.69,0,0,0,324,99.1a13,13,0,0,0-2.38-1.21,15.19,15.19,0,0,0-2.53-.73,16.21,16.21,0,0,0-2.57-.3c-.86,0-1.72,0-2.57-.06a6.06,6.06,0,0,1-1.27-.24,6.72,6.72,0,0,1-1.17-.49l-1.1-.56a11.73,11.73,0,0,0-1.12-.43,9.74,9.74,0,0,0-2.32-.41,10.31,10.31,0,0,0-2.29.16,12,12,0,0,0-7.18,4.26,7.49,7.49,0,0,1-1.37,1.44,5.67,5.67,0,0,1-1.73.77,10.64,10.64,0,0,0-1.67.61,6.74,6.74,0,0,0-1.41.89,7.46,7.46,0,0,0-1.95,2.36,10.26,10.26,0,0,0-.85,2.54,11.87,11.87,0,0,1-.63,2.19,4.22,4.22,0,0,1-1,1.51c-.39.36-.75.62-1,.85a4.39,4.39,0,0,0-.6.55C285.11,112.93,285.06,113,285.05,113Z"/><path class="cls-8" d="M324.22,100.51s-.19-.2-.55-.54a6.22,6.22,0,0,0-1.75-1.12,5.73,5.73,0,0,0-3-.44,5.94,5.94,0,0,0-3.32,1.6,4.5,4.5,0,0,0-.73.86,1.08,1.08,0,0,0-.21.94l.12.37-.32-.21a3.82,3.82,0,0,0-2.81-.48,3.71,3.71,0,0,0-2,1.18,4,4,0,0,0-.77,1.34c-.12.35-.15.55-.17.55s0,0,0-.15a2.45,2.45,0,0,1,.08-.42,3.7,3.7,0,0,1,.73-1.43,3.79,3.79,0,0,1,2-1.3,4,4,0,0,1,3,.48l-.2.16a1.42,1.42,0,0,1,.23-1.17,5.22,5.22,0,0,1,.77-.92,6.15,6.15,0,0,1,3.49-1.65,5.86,5.86,0,0,1,3.12.51,5.74,5.74,0,0,1,1.74,1.22,4.55,4.55,0,0,1,.38.45C324.19,100.44,324.23,100.5,324.22,100.51Z"/><path class="cls-8" d="M335.46,114.8a1.38,1.38,0,0,1-.4.22,5.48,5.48,0,0,1-1.19.39,4.36,4.36,0,0,1-1.91,0,3.29,3.29,0,0,1-2-1.3l.2,0c-.11.1-.24.19-.36.29l-.4.25a5.55,5.55,0,0,1-2.6.72,5.78,5.78,0,0,1-2.16-.36,4.85,4.85,0,0,1-1.29-.73c-.27-.22-.4-.36-.39-.38a7.68,7.68,0,0,0,1.74.93,5.79,5.79,0,0,0,2.09.28,5.49,5.49,0,0,0,2.47-.69c.13-.09.26-.16.38-.25l.35-.26.12-.1.08.12a3,3,0,0,0,1.81,1.22,4.32,4.32,0,0,0,1.81.06C334.86,115.05,335.45,114.75,335.46,114.8Z"/><path class="cls-8" d="M337.69,124.31l-.07.15a1.64,1.64,0,0,1-.33.37,2.45,2.45,0,0,1-1.69.52,4.71,4.71,0,0,1-2.42-1,12.78,12.78,0,0,1-1.22-1,2.48,2.48,0,0,1-.89-1.46v-.16l.19.13a10.62,10.62,0,0,1-3.07.79,4.64,4.64,0,0,1-2.53-.48,3.35,3.35,0,0,1-1.32-1.14,2.49,2.49,0,0,1-.22-.42c0-.1-.05-.15,0-.16s.11.2.35.52a3.61,3.61,0,0,0,1.31,1,4.64,4.64,0,0,0,2.44.4,10.78,10.78,0,0,0,3-.8l.17-.07,0,.2v.13a2.23,2.23,0,0,0,.79,1.3c.38.35.8.65,1.19.95a4.68,4.68,0,0,0,2.28,1,2.42,2.42,0,0,0,1.62-.41C337.56,124.5,337.66,124.29,337.69,124.31Z"/><path class="cls-5" d="M297.24,148.51a2.35,2.35,0,0,0,1.33-.86,5.18,5.18,0,0,0,.46-3.81.9.9,0,0,0-.59-.66,2.54,2.54,0,0,0-1,0c-.69.09-1.31.19-1.83.28a7.59,7.59,0,0,1-1.71.26,4.49,4.49,0,0,1,1.63-.62c.51-.14,1.14-.28,1.84-.4a2.83,2.83,0,0,1,1.2,0,1.43,1.43,0,0,1,.95,1,5.09,5.09,0,0,1-.67,4.19,1.92,1.92,0,0,1-1.14.69C297.41,148.61,297.24,148.54,297.24,148.51Z"/><path class="cls-5" d="M357.58,107.88a8.51,8.51,0,0,0-.57-1.75,6.23,6.23,0,0,0-3.62-3.2,5.34,5.34,0,0,0-3.33,0,6.23,6.23,0,0,0-3.06,2.29,4.08,4.08,0,0,0-.65,4A1.37,1.37,0,0,0,348,110a2.75,2.75,0,0,0,1.57-1.47,5.48,5.48,0,0,0,.2-4.43A5.78,5.78,0,0,0,347,101a7.9,7.9,0,0,0-7.07-.13A10.78,10.78,0,0,0,336.1,104c-.73.94-1,1.54-1.07,1.51s.05-.16.19-.45a8.9,8.9,0,0,1,.72-1.18,10.39,10.39,0,0,1,3.85-3.36,8.19,8.19,0,0,1,7.46,0,6.27,6.27,0,0,1,3,3.42,6,6,0,0,1-.22,4.85,3.23,3.23,0,0,1-1.89,1.73,1.78,1.78,0,0,1-1.34-.16,2,2,0,0,1-.87-1,3.74,3.74,0,0,1-.22-2.39,5.87,5.87,0,0,1,.94-2.06,6.62,6.62,0,0,1,3.32-2.42,5.64,5.64,0,0,1,3.57,0,6.32,6.32,0,0,1,3.69,3.47A3.89,3.89,0,0,1,357.58,107.88Z"/><path class="cls-5" d="M280.46,103.25s0-.11.13-.27a2.22,2.22,0,0,1,.62-.6,2.7,2.7,0,0,1,1.3-.44,2.55,2.55,0,0,1,1.77.5c1.15.87,1.64,2.52,2,4.18.1.42.2.86.31,1.3a3.76,3.76,0,0,1,.14,1.45,1.44,1.44,0,0,1-.4.77,1.29,1.29,0,0,1-.83.31,1.94,1.94,0,0,1-1.5-.71,2.75,2.75,0,0,1-.16-3,3,3,0,0,1,2.45-1.42,3.4,3.4,0,0,1,2.42.81,4.3,4.3,0,0,1,1.26,1.82,5.19,5.19,0,0,1,.05,3.13,2.66,2.66,0,0,1-.46,1s.12-.39.26-1.09a5.15,5.15,0,0,0-.19-3,3.9,3.9,0,0,0-1.19-1.62,3,3,0,0,0-2.12-.67,2.48,2.48,0,0,0-2,1.19,2.25,2.25,0,0,0,.12,2.45,1.37,1.37,0,0,0,1.08.52.72.72,0,0,0,.73-.64,3.18,3.18,0,0,0-.12-1.28c-.1-.44-.19-.86-.28-1.28-.32-1.67-.77-3.22-1.75-4a2.51,2.51,0,0,0-2.74-.18A4.61,4.61,0,0,0,280.46,103.25Z"/><path class="cls-5" d="M323,99.58a4.8,4.8,0,0,0,.42-1.35A4.19,4.19,0,0,0,322,94.78a6.19,6.19,0,0,0-5.48-1,8.86,8.86,0,0,0-3.19,1.3,3.66,3.66,0,0,0-1.79,3l-.46-.16a2.81,2.81,0,0,0,.55-2.13,4.07,4.07,0,0,0-2.28-3.13,6.1,6.1,0,0,0-3.76-.33,10.64,10.64,0,0,0-5.71,3.15,6.14,6.14,0,0,0-1.61,4.06,9.49,9.49,0,0,0,.23,1.64,1.47,1.47,0,0,1-.19-.4,4.2,4.2,0,0,1-.24-1.23,6.21,6.21,0,0,1,1.53-4.31,10.87,10.87,0,0,1,5.89-3.38,6.65,6.65,0,0,1,4.08.34,4.56,4.56,0,0,1,2.58,3.52,3.37,3.37,0,0,1-.67,2.53l-.44.54,0-.7a4.11,4.11,0,0,1,2-3.37,9,9,0,0,1,3.38-1.35,6.5,6.5,0,0,1,5.81,1.23,4.35,4.35,0,0,1,1.34,3.73,3,3,0,0,1-.37,1Q323,99.6,323,99.58Z"/><path class="cls-5" d="M317.05,142.49s-.1-.05-.27-.18a4.77,4.77,0,0,1-.63-.67,5.66,5.66,0,0,1-1.11-3.21,5.36,5.36,0,0,1,2.21-4.46,5.81,5.81,0,0,1,2.83-1.11,2.72,2.72,0,0,1,1.69.24,1,1,0,0,1,.39,1,1.26,1.26,0,0,1-.53.84,2.05,2.05,0,0,1-1.77.09,3.33,3.33,0,0,1-1.39-.92,3.84,3.84,0,0,1-1-2.9,4.17,4.17,0,0,1,1.21-2.48,4.59,4.59,0,0,1,2.06-1.21,5.29,5.29,0,0,1,3.38.23,2.82,2.82,0,0,1,1.07.63s-.4-.19-1.14-.44a5.46,5.46,0,0,0-3.21-.07,4.09,4.09,0,0,0-2.89,3.39,3.32,3.32,0,0,0,.88,2.5,2.81,2.81,0,0,0,1.17.78,1.55,1.55,0,0,0,1.32,0c.34-.21.43-.76.13-.93a2.51,2.51,0,0,0-1.34-.15,5.21,5.21,0,0,0-2.59,1,5,5,0,0,0-2.13,4.07,5.78,5.78,0,0,0,.9,3.09C316.74,142.17,317.08,142.46,317.05,142.49Z"/><path class="cls-5" d="M367,116s-.45-.18-1.26-.43a8.56,8.56,0,0,0-3.56-.28,7.81,7.81,0,0,0-2.35.69,4,4,0,0,0-2.05,1.72,1.52,1.52,0,0,0,0,1.3,1.38,1.38,0,0,0,1.16.64c1,.08,1.89-.76,2.57-1.66a6.76,6.76,0,0,0,1.45-2.94,3.43,3.43,0,0,0-.66-2.81,3.93,3.93,0,0,0-2.42-1.15,17,17,0,0,0-2.48-.18,5,5,0,0,0-3.34,1,5.66,5.66,0,0,0-.86,1,.76.76,0,0,1,.11-.33,2.78,2.78,0,0,1,.61-.81,5,5,0,0,1,3.47-1.22,16.5,16.5,0,0,1,2.56.13,4.27,4.27,0,0,1,2.71,1.25,3.94,3.94,0,0,1,.81,3.22,7.24,7.24,0,0,1-1.55,3.17,6,6,0,0,1-1.27,1.3,2.66,2.66,0,0,1-1.74.55,1.88,1.88,0,0,1-1.57-.91,2,2,0,0,1,0-1.73,4.45,4.45,0,0,1,2.31-1.93,8.21,8.21,0,0,1,6.15-.2,6.33,6.33,0,0,1,.91.42C366.89,116,367,116,367,116Z"/><path class="cls-11" d="M389.09,98s-24.79,26.2-31.29,32c-6.17,5.5-31.65,27.6-31.65,27.6l9,25.8s25.3-28.68,30.08-35.14l21.39-28.39c2.9-4.33,12-16.45,12-16.45Z"/><path class="cls-11" d="M389.09,97.77s-.59-5.64-.89-6.93-1.89-5.37-1.49-7.46,3.68-6,5-7.25,3.58-1.69,4.37,0c0,0,2.78.2,3.38,1.29a8.35,8.35,0,0,1,.8,2l3.57-.7s.8,2.09-.59,3.28c0,0,1.79.1,2.09,1.59a9.58,9.58,0,0,1-.7,4.87c-.4.4-2.48,2.19-2.48,2.19s1.19,7.85.29,9.44-7.26,5.85-7.26,5.85Z"/><path class="cls-11" d="M398.44,89.34c.45.74,1.73,1.68,2.54,1.37a3.2,3.2,0,0,0,1.71-1.86,9.58,9.58,0,0,0,.48-2.55l.25-2.66"/><path class="cls-12" d="M403.42,83.64a5,5,0,0,1,0,1.61c0,.5-.05,1.08-.11,1.74a6.79,6.79,0,0,1-.49,2.14,3.41,3.41,0,0,1-1.51,1.68,1.47,1.47,0,0,1-1,.14,2.69,2.69,0,0,1-.8-.36c-.87-.59-1.12-1.23-1.06-1.25a9.85,9.85,0,0,0,1.25.93,1.38,1.38,0,0,0,1.43.11,3,3,0,0,0,1.25-1.46,15.83,15.83,0,0,0,.72-3.7A5.28,5.28,0,0,1,403.42,83.64Z"/><path class="cls-11" d="M391.11,82.47A2.35,2.35,0,0,0,393,80.36a6.18,6.18,0,0,0-.1,1.82,2,2,0,0,0,.93,1.5,2.1,2.1,0,0,0,2.54-.74c.91-1.18.87-2.82.78-4.3-.06-1.08.05-3-2.07-3.64"/><path class="cls-12" d="M395.05,75a1.52,1.52,0,0,1,.71.2,2.58,2.58,0,0,1,1.32,1.57,5.12,5.12,0,0,1,.24,1.4c0,.49.08,1,.09,1.58a5,5,0,0,1-1.06,3.57,2.59,2.59,0,0,1-1.74.81,1.82,1.82,0,0,1-1.6-.88,2.83,2.83,0,0,1-.4-1.57,8.56,8.56,0,0,1,.17-1.35l.38,0a2.41,2.41,0,0,1-1.24,1.89c-.49.26-.81.24-.81.21s.28-.1.69-.39a2.26,2.26,0,0,0,1-1.73l.38,0a3.76,3.76,0,0,0,.26,2.6,1.33,1.33,0,0,0,1.17.63A2.15,2.15,0,0,0,396,83a4.67,4.67,0,0,0,.95-3.19,14.32,14.32,0,0,0-.2-2.88,2.5,2.5,0,0,0-1.07-1.5C395.28,75.13,395,75.05,395.05,75Z"/><path class="cls-11" d="M390,88.44a36,36,0,0,1,5.82-6.55,12.17,12.17,0,0,1,8.05-3,3.3,3.3,0,0,1-.85,3A15.54,15.54,0,0,1,400.47,84a5.46,5.46,0,0,0-2.05,2.52c-.45,1.37.05,2.84.33,4.25a14,14,0,0,1-1.3,9.07"/><path class="cls-12" d="M397.45,99.83s.22-.54.56-1.52A14.3,14.3,0,0,0,398.8,94a13.65,13.65,0,0,0-.22-3,18.3,18.3,0,0,1-.58-3.48,3.91,3.91,0,0,1,.53-1.92,6.2,6.2,0,0,1,1.36-1.53A18.83,18.83,0,0,0,403,81.51a2.9,2.9,0,0,0,.61-2.56l.24.18A11.25,11.25,0,0,0,397.44,81a20.14,20.14,0,0,0-4.17,3.59c-1,1.16-1.83,2.15-2.39,2.82a9.39,9.39,0,0,1-.88,1,6.33,6.33,0,0,1,.74-1.13c.5-.71,1.25-1.74,2.28-2.94a19.78,19.78,0,0,1,4.17-3.75,11.67,11.67,0,0,1,6.69-2h.18l.06.17a3.44,3.44,0,0,1-.7,3,18.14,18.14,0,0,1-3.2,2.69,4,4,0,0,0-1.74,3.07A18,18,0,0,0,399,91a14.22,14.22,0,0,1,.16,3.07,13.65,13.65,0,0,1-1,4.33,11.4,11.4,0,0,1-.52,1.08A2.39,2.39,0,0,1,397.45,99.83Z"/><polygon class="cls-10" points="267.32 187 257.92 165.9 279.13 151.51 287.46 168.2 267.32 187"/><path class="cls-10" d="M352,275.1c-6.19-5.84-21.28-21.6-25.86-36.1-.31-1,.79-32.58,1.82-38.07s8.81-15.24,8.81-15.24l-10.63-28.08-11.81,9.46s-5.73,2.19-11.67,4.57c-10.12,2.05-16.37-5.77-16.37-5.77.74-.41-5.44,2.43-7.19,4.12,0,0-23,21.76-22.67,35.15s3.81,14.7,5.19,24.9c1.34,9.87,5.42,22,6.62,31.6a32.45,32.45,0,0,0,6.15,15.18s2.65,5,11.23,4.69,36.26-6,51.37-1.6,22.29,13.41,22.29,13.41S358.19,280.94,352,275.1Z"/><path class="cls-5" d="M301.4,229.36a6.08,6.08,0,0,1-1.42.07,20.87,20.87,0,0,1-3.84-.41,24,24,0,0,1-18.29-16.18,22.22,22.22,0,0,1-.88-3.76,6,6,0,0,1-.1-1.41,45.19,45.19,0,0,0,1.33,5.05,24.62,24.62,0,0,0,18,15.94A44.18,44.18,0,0,0,301.4,229.36Z"/><path class="cls-5" d="M321.68,197.47s-.24-.2-.6-.64a18,18,0,0,1-1.4-2,25.3,25.3,0,0,1-3.09-7.26,25.72,25.72,0,0,1-.72-7.87,18.81,18.81,0,0,1,.31-2.37,3,3,0,0,1,.22-.85c.09,0-.11,1.24-.16,3.24a29.35,29.35,0,0,0,.85,7.72,28.86,28.86,0,0,0,2.91,7.2C321,196.43,321.75,197.42,321.68,197.47Z"/><path class="cls-5" d="M258.38,197.81a5.49,5.49,0,0,1,.38-1.15c.26-.74.72-1.78,1.31-3a54.93,54.93,0,0,1,5.73-9.3c2.59-3.41,5.16-6.29,7-8.4l2.18-2.48a5.56,5.56,0,0,1,.85-.87,5.37,5.37,0,0,1-.69,1c-.47.62-1.18,1.51-2.06,2.59-1.76,2.17-4.28,5.09-6.85,8.47a63.35,63.35,0,0,0-5.82,9.16C259.13,196.25,258.47,197.85,258.38,197.81Z"/><path class="cls-5" d="M336.75,268.87c0,.05-.64,0-1.78-.07a25.21,25.21,0,0,0-4.8.32,38.9,38.9,0,0,0-6.89,1.85c-2.54.9-5.27,2.09-8.14,3.33a69.78,69.78,0,0,1-8.27,3.08,31,31,0,0,1-7.11,1.27,19.63,19.63,0,0,1-4.86-.35c-.57-.1-1-.26-1.28-.33a1.71,1.71,0,0,1-.44-.16,26.55,26.55,0,0,0,6.56.47,31.66,31.66,0,0,0,7-1.36,78.24,78.24,0,0,0,8.21-3.1c2.86-1.24,5.61-2.42,8.18-3.3a35.79,35.79,0,0,1,7-1.76,21.6,21.6,0,0,1,4.87-.16,12.73,12.73,0,0,1,1.31.17A1.52,1.52,0,0,1,336.75,268.87Z"/><g class="cls-7"><path d="M285.31,223.33c-4-3.4-7.56-7.72-8-12.93l-.29,0a17.33,17.33,0,0,0,5.37,16.37c4.53,4,10.52,4.65,16.19,2.63C293.51,228.17,289.28,226.72,285.31,223.33Z"/></g><path class="cls-10" d="M273.36,274.94A215.55,215.55,0,0,0,244.77,270c-11-.9-36.94-.54-41.8,6.27s-4.29,13.09-2.61,17.75S217,307.3,223.69,311.43s45.9,5.55,45.9,5.55l16-38.54Z"/><path class="cls-10" d="M295,279.74c-.94.07-17.21.84-21.69,7.69s-9,15.22-9.15,20.18,2.62,8.21,7.84,9.92,23.88,2.05,31,1,41.67-7.2,49.14-10.45,9.47-10.22,5.57-20.14c-3.07-7.81-18-9.44-26.35-11.83S295,279.74,295,279.74Z"/><path class="cls-5" d="M223.32,283.31a10.53,10.53,0,0,1,1.77.13c.57.05,1.27.14,2.07.26s1.72.25,2.73.45c2,.34,4.39.88,7,1.54s5.47,1.56,8.42,2.59,5.69,2.19,8.16,3.31,4.63,2.24,6.4,3.27c.9.49,1.69,1,2.38,1.41s1.28.8,1.75,1.13a11.79,11.79,0,0,1,1.43,1.05,11.37,11.37,0,0,1-1.54-.88c-.48-.3-1.08-.66-1.79-1.05s-1.5-.87-2.4-1.34c-1.79-1-4-2-6.43-3.16s-5.21-2.2-8.14-3.25-5.77-1.89-8.36-2.61-5-1.26-7-1.65c-1-.22-1.91-.38-2.7-.52s-1.49-.27-2.05-.35A13.15,13.15,0,0,1,223.32,283.31Z"/><path class="cls-5" d="M349.41,296.37a8.89,8.89,0,0,1-1.15-1c-.71-.67-1.77-1.6-3.11-2.71s-3-2.34-4.91-3.62a63.4,63.4,0,0,0-6.48-3.73,62.66,62.66,0,0,0-6.89-2.89c-2.17-.75-4.17-1.32-5.86-1.72s-3.08-.68-4-.83a8.07,8.07,0,0,1-1.49-.32,9.38,9.38,0,0,1,1.52.12c1,.09,2.37.32,4.09.67A55.19,55.19,0,0,1,327,282a55.44,55.44,0,0,1,13.47,6.68,54.39,54.39,0,0,1,4.89,3.74c1.32,1.15,2.35,2.13,3,2.84A8,8,0,0,1,349.41,296.37Z"/><path class="cls-5" d="M357.38,292.54s-.07,0-.2-.13l-.54-.43-2.07-1.7a80.17,80.17,0,0,0-7.88-5.81,39.86,39.86,0,0,0-6-3.09,34.42,34.42,0,0,0-7.45-2c-5.4-.88-11.45-.76-17.76-.61s-12.33.65-17.78,1.25c-2.72.31-5.31.63-7.71,1a24.49,24.49,0,0,1-6.79.56,12.13,12.13,0,0,1-5.3-1.88,17.55,17.55,0,0,1-3.33-2.62,10,10,0,0,1-1.64-2.13,4.66,4.66,0,0,1-.39-.85s.15.29.48.8a10.63,10.63,0,0,0,1.69,2,17.44,17.44,0,0,0,3.34,2.52,11.87,11.87,0,0,0,5.18,1.76,24.54,24.54,0,0,0,6.69-.61c2.41-.39,5-.73,7.73-1,5.45-.63,11.48-1.1,17.81-1.3s12.4-.25,17.85.66a34.37,34.37,0,0,1,7.54,2.09,38.44,38.44,0,0,1,6,3.18,70.1,70.1,0,0,1,7.82,6l2,1.77.51.47Z"/><path class="cls-5" d="M299,279.82a2.49,2.49,0,0,1-.62.14c-.41.09-1,.17-1.79.33a59.57,59.57,0,0,0-6.48,1.62,57.24,57.24,0,0,0-19.26,10.33c-3.31,2.7-6.12,5.82-7.45,9.28a14.71,14.71,0,0,0-.24,9.6,22.73,22.73,0,0,0,2.83,6c.87,1.32,1.43,2,1.39,2a2.82,2.82,0,0,1-.43-.46c-.28-.31-.66-.8-1.13-1.44a21.46,21.46,0,0,1-3-6,16.94,16.94,0,0,1-.77-4.6,13.93,13.93,0,0,1,.91-5.28c1.35-3.59,4.22-6.78,7.57-9.51A55.11,55.11,0,0,1,290,281.56a50.06,50.06,0,0,1,6.55-1.47c.78-.13,1.39-.18,1.8-.23A3.08,3.08,0,0,1,299,279.82Z"/><g class="cls-7"><path d="M340,273.85c-2.09-1.5-4.9-1.45-7.46-1.16a109.3,109.3,0,0,0-23.8,5.1c10.64-1.79,21.27-3.3,31.07-2.64a.75.75,0,0,0,.61-.22C340.67,274.6,340.32,274.1,340,273.85Z"/></g><path class="cls-1" d="M510.12,289.12c-.86-4.37-3.42-8.24-6.39-11.57-10.52-11.83-26.44-17.94-42.24-19s-31.57,2.56-46.57,7.64c-8.48,2.87-17.13,6.43-23.11,13.1s-8.5,17.24-3.57,24.72l6.63,1.24-3.18.13a987,987,0,0,0,102.2-.42c4.46-.25,9.27-.67,12.63-3.6S511,293.5,510.12,289.12Z"/><path class="cls-5" d="M467.46,273.55a3.42,3.42,0,0,1,.32.88c.18.57.41,1.41.65,2.46a55.6,55.6,0,0,1,1.2,16.67c-.09,1.07-.19,1.93-.29,2.53a2.91,2.91,0,0,1-.2.91,32.69,32.69,0,0,1,.12-3.46,75.22,75.22,0,0,0-.12-8.32,77.25,77.25,0,0,0-1.07-8.26A32.7,32.7,0,0,1,467.46,273.55Z"/><path class="cls-5" d="M459.58,274a4,4,0,0,1-.61,0l-1.73-.22c-1.51-.21-3.69-.47-6.39-.73s-5.92-.51-9.5-.67-7.52-.17-11.66-.05-8.07.44-11.64.8-6.76.83-9.44,1.28-4.83.84-6.32,1.14l-1.72.33a2.46,2.46,0,0,1-.6.08,2.2,2.2,0,0,1,.58-.18l1.7-.42c1.47-.37,3.63-.82,6.3-1.31s5.88-1,9.45-1.39,7.52-.71,11.67-.85,8.11-.07,11.7.09,6.82.46,9.52.78,4.88.63,6.38.9l1.72.31A2.32,2.32,0,0,1,459.58,274Z"/><path class="cls-5" d="M492.39,273.62a23.47,23.47,0,0,1-3.09-.2c-1.9-.16-4.53-.34-7.44-.4s-5.55,0-7.45.1a20.92,20.92,0,0,1-3.1.08,14.58,14.58,0,0,1,3.07-.44,69.28,69.28,0,0,1,15,.29A15.42,15.42,0,0,1,492.39,273.62Z"/><polygon class="cls-6" points="55.73 441.4 48.22 441.4 45.32 391.65 57.97 391.65 55.73 441.4"/><polygon class="cls-6" points="204.04 441.4 196.52 441.4 193.62 385.21 206.27 385.21 204.04 441.4"/><polygon class="cls-6" points="510.65 441.4 503.14 441.4 500.24 377.64 512.89 377.64 510.65 441.4"/><path class="cls-1" d="M43.93,303.33H513.38a11.92,11.92,0,0,1,11.92,11.92v48.22a14.17,14.17,0,0,1-14.17,14.17H24a0,0,0,0,1,0,0V323.3a20,20,0,0,1,20-20Z"/><g class="cls-7"><polygon points="375.19 377.83 383.61 377.64 377.3 303.87 366.31 303.3 375.19 377.83"/></g><path class="cls-8" d="M23.58,382.26V315.87a16.33,16.33,0,0,1,16.28-16.3l104.86-.47s12.94-13,22.19-12.92,16.64-22.47,46.45-22.52c33.71-.07,25.31,9.63,43.73,15.9s45.44-7,62.36,6.62,43.41,5.8,49,17.69,6.78,81.34,6.78,81.34Z"/><path class="cls-8" d="M23.58,368.71v13.55c-.43,12,2.13,12.52,7.6,14.66s11.57.66,17.09-1.32,11.06-4.48,16.89-4.34c11.7.28,21.45,11,33.15,11.16,15,.16,26.78-17,41.69-15.55,11.34,1.09,20.49,12.89,31.83,11.79,7.91-.77,14.23-7.72,22.06-9,10.13-1.69,19.38,6.29,29.53,7.8,13.75,2,27.05-8,40.86-6.56,11.88,1.2,22,10.66,33.87,11.65,14.94,1.24,28.68-11.1,43.6-9.73,12.42,1.13,23.09,11.61,35.55,11.23l-2.38-29.54Z"/><path class="cls-5" d="M213.36,384.8c-.14,0-.26-17.16-.26-38.33s.12-38.34.26-38.34.26,17.16.26,38.34S213.5,384.8,213.36,384.8Z"/><path class="cls-5" d="M219.8,300.62l-.45,0-1.35,0-5.17.05-19,.09-62.72.07-62.73-.07-19-.09-5.17-.05-1.34,0c-.31,0-.46,0-.46,0a3.92,3.92,0,0,1,.46,0l1.34,0,5.17-.05,19-.08,62.73-.08,62.72.08,19,.08,5.17.05,1.35,0A3.82,3.82,0,0,1,219.8,300.62Z"/><path class="cls-5" d="M252.19,281.49c0,.11-2-.1-5.28.09a41,41,0,0,0-5.66.74,45,45,0,0,0-6.7,1.95,46.34,46.34,0,0,0-6.27,3.05,40.87,40.87,0,0,0-4.69,3.25c-2.54,2-3.9,3.55-4,3.48a6.75,6.75,0,0,1,.92-1.09,15.82,15.82,0,0,1,1.17-1.19c.48-.44,1-1,1.64-1.48a37.59,37.59,0,0,1,4.68-3.38,39.51,39.51,0,0,1,13.13-5.06,37.78,37.78,0,0,1,5.73-.64c.82,0,1.57,0,2.22,0a15.13,15.13,0,0,1,1.67.1A7.92,7.92,0,0,1,252.19,281.49Z"/><path class="cls-5" d="M358.19,303.3c0,.14-18.71.05-41.78-.2s-41.78-.57-41.78-.72,18.71-.05,41.79.2S358.19,303.15,358.19,303.3Z"/><path class="cls-5" d="M366.31,392.11c-.14,0-1.59-17.52-3.22-39.15s-2.85-39.19-2.71-39.2,1.59,17.52,3.23,39.16S366.46,392.1,366.31,392.11Z"/><path class="cls-5" d="M89.64,350.66c.15,0-.06,8.84-.45,19.73s-.84,19.73-1,19.72.06-8.84.46-19.74S89.5,350.65,89.64,350.66Z"/><path class="cls-5" d="M106,387.86c-.14,0-.26-13.65-.26-30.48s.12-30.49.26-30.49.26,13.65.26,30.49S106.16,387.86,106,387.86Z"/><path class="cls-5" d="M152.55,381.6a1.62,1.62,0,0,1-.12-.48c-.07-.38-.16-.84-.26-1.4-.21-1.21-.49-3-.8-5.15-.63-4.36-1.37-10.4-2-17.1s-.9-12.78-1-17.18c-.07-2.2-.1-4-.1-5.22v-1.41a2.42,2.42,0,0,1,0-.5,1.78,1.78,0,0,1,.07.49c0,.39.05.85.09,1.42.07,1.31.16,3.07.27,5.2.23,4.4.61,10.47,1.19,17.16s1.27,12.72,1.8,17.09l.64,5.17c.06.57.12,1,.16,1.41A1.72,1.72,0,0,1,152.55,381.6Z"/><path class="cls-5" d="M168.35,388.31a1.88,1.88,0,0,1-.24-.46l-.6-1.36c-.51-1.18-1.18-2.92-1.94-5.1s-1.56-4.8-2.33-7.75-1.45-6.24-2-9.71-.86-6.82-1-9.87-.2-5.79-.13-8.09.17-4.17.3-5.45l.15-1.47a1.63,1.63,0,0,1,.09-.51,1.83,1.83,0,0,1,0,.51c0,.4,0,.89-.05,1.48-.07,1.29-.12,3.15-.14,5.44s.06,5,.25,8.06.55,6.35,1.08,9.82,1.23,6.72,2,9.67,1.49,5.57,2.21,7.75,1.33,3.94,1.78,5.14c.2.56.37,1,.5,1.4A2.72,2.72,0,0,1,168.35,388.31Z"/><path class="cls-5" d="M249.58,337.21c.15,0-.76,11.57-2,25.82s-2.39,25.79-2.54,25.77.76-11.57,2-25.82S249.44,337.19,249.58,337.21Z"/><path class="cls-5" d="M275,384.28a3,3,0,0,1-.2-.51c-.13-.4-.3-.89-.5-1.5-.42-1.3-1-3.2-1.6-5.57A145.06,145.06,0,0,1,268,338.83c0-2.44.09-4.42.18-5.79,0-.63.08-1.15.11-1.57a2.22,2.22,0,0,1,.07-.55,2,2,0,0,1,0,.55c0,.42,0,.94,0,1.58,0,1.36,0,3.34,0,5.78a166.81,166.81,0,0,0,1.28,19,169.77,169.77,0,0,0,3.46,18.75c.58,2.38,1.08,4.29,1.45,5.61l.4,1.52A2.2,2.2,0,0,1,275,384.28Z"/><path class="cls-5" d="M329.34,387.86c-.14,0-.89-9.92-1.66-22.17s-1.29-22.2-1.15-22.21.89,9.92,1.67,22.18S329.49,387.85,329.34,387.86Z"/><path class="cls-5" d="M514.06,303.33c0,.15-32.27.27-72.08.27s-72.08-.12-72.08-.27,32.27-.26,72.08-.26S514.06,303.19,514.06,303.33Z"/><g class="cls-7"><path d="M248.61,281.44a2.78,2.78,0,0,0-2-1.73,45.5,45.5,0,0,0-18.41-.28,32.89,32.89,0,0,0-17.37,9.4c-1.16,1.24-2.28,2.76-1.71,4.59a4.23,4.23,0,0,0,4.16,2.8,11.59,11.59,0,0,0,6.76-2.58l5.57-5.18c7.35-5.73,20.66-7.6,23-7Z"/></g></g></g></svg>